<?xml version="1.0" standalone="no"?>
<!DOCTYPE svg PUBLIC "-//W3C//DTD SVG 20010904//EN"
 "http://www.w3.org/TR/2001/REC-SVG-20010904/DTD/svg10.dtd">
<svg version="1.0" xmlns="http://www.w3.org/2000/svg"
 width="512.000000pt" height="512.000000pt" viewBox="0 0 512.000000 512.000000"
 preserveAspectRatio="xMidYMid meet">
<metadata>
Created by potrace 1.14, written by Peter Selinger 2001-2017
</metadata>
<g transform="translate(0.000000,512.000000) scale(0.100000,-0.100000)"
fill="#000000" stroke="none">
<path d="M0 2560 l0 -2560 2560 0 2560 0 0 2560 0 2560 -2560 0 -2560 0 0
-2560z m2930 1870 c284 -59 547 -181 765 -354 139 -110 314 -296 405 -431 83
-124 206 -380 240 -500 106 -376 123 -644 64 -995 -18 -106 -72 -281 -130
-416 -109 -256 -320 -522 -539 -679 -22 -16 -45 -34 -50 -39 -17 -18 -74 -56
-83 -56 -5 0 -15 -6 -21 -14 -20 -24 -306 -158 -406 -190 -122 -38 -387 -85
-486 -86 l-47 0 5 47 c3 27 8 64 12 83 l7 35 74 7 c41 4 86 11 100 17 24 9 24
10 -10 12 l-35 1 30 7 30 7 -28 7 c-15 4 -25 12 -22 17 4 6 10 8 15 5 9 -6 21
20 16 38 -1 6 -1 9 1 5 8 -13 32 4 26 18 -3 8 0 14 6 14 6 0 10 13 9 30 -1 16
-7 30 -13 30 -5 0 -3 5 5 10 11 7 12 12 3 18 -8 5 -12 46 -11 127 0 80 3 113
9 100 7 -15 8 -10 6 21 -2 30 1 40 10 37 10 -4 13 11 13 58 0 34 6 78 13 97 9
28 9 36 0 39 -9 3 -10 10 -3 22 5 10 6 22 2 26 -4 5 -1 5 6 1 6 -4 12 -3 12 3
0 6 7 8 15 5 8 -4 15 -1 15 5 0 6 -9 11 -20 11 -11 0 -20 5 -20 11 0 5 -4 7
-10 4 -13 -8 -13 18 -1 31 5 5 11 41 13 79 2 39 8 79 12 90 8 19 8 19 -6 1
-13 -17 -14 -14 -8 35 4 30 5 70 3 89 -3 24 -2 31 5 22 6 -10 11 1 16 37 4 29
4 56 1 61 -3 6 -1 10 5 10 7 0 9 7 6 16 -5 14 0 15 31 10 21 -3 30 -2 20 2
-21 9 -29 4 105 65 167 77 310 220 380 382 43 97 51 143 52 270 1 185 -43 313
-151 443 -83 98 -156 156 -268 212 -127 63 -213 82 -380 84 -189 2 -307 -30
-432 -115 -101 -69 -221 -201 -245 -269 -5 -16 -13 -29 -16 -29 -4 1 -14 1
-22 -1 -11 -1 -10 -3 4 -9 16 -6 14 -10 -18 -25 -20 -9 -36 -23 -36 -31 0 -8
-4 -15 -10 -15 -5 0 -10 -8 -10 -18 0 -10 -4 -22 -9 -27 -35 -39 -42 -241 -11
-330 27 -78 67 -145 88 -146 10 0 12 -3 5 -6 -10 -3 -9 -8 2 -19 8 -8 20 -23
27 -32 7 -10 25 -26 39 -37 14 -11 27 -24 30 -30 2 -5 10 -9 16 -9 7 1 10 -2
7 -7 -2 -5 6 -18 20 -30 l25 -21 -95 -122 c-51 -66 -126 -164 -166 -216 -101
-132 -378 -408 -378 -376 0 2 9 86 20 187 11 101 38 348 60 549 55 514 125
1118 156 1348 4 35 9 42 27 42 25 0 200 -19 492 -55 607 -73 673 -79 689 -62
23 23 17 83 -9 85 -11 0 -25 8 -31 17 -9 12 -18 14 -31 8 -34 -15 -147 2 -140
21 4 9 -13 11 -62 10 -41 -2 -58 0 -46 5 18 7 16 9 -13 15 -18 4 -51 5 -75 2
-29 -4 -36 -3 -22 3 18 8 19 9 3 16 -11 4 -18 18 -18 36 l0 29 -175 -1 c-103
0 -175 -4 -175 -10 0 -5 7 -9 15 -9 8 0 15 -4 15 -10 0 -5 11 -10 25 -10 14 0
25 -4 25 -10 0 -5 -11 -10 -25 -10 -14 0 -25 5 -25 10 0 6 -19 10 -42 9 -24
-1 -61 1 -83 4 -30 5 -34 4 -15 -2 20 -7 21 -9 5 -9 -11 0 -31 3 -45 7 -24 7
-24 7 9 14 54 11 32 16 -29 6 -58 -9 -110 -5 -147 13 -12 6 -30 7 -40 3 -10
-5 -21 -8 -25 -7 -4 1 -28 3 -53 6 -41 3 -47 1 -55 -20 -5 -13 -14 -24 -19
-24 -5 0 -11 -7 -14 -14 -4 -10 -1 -13 9 -9 7 3 14 1 14 -5 0 -6 -4 -12 -9
-14 -4 -1 -11 -14 -15 -28 -6 -19 -5 -21 3 -10 9 13 11 13 11 -2 0 -10 -6 -18
-12 -19 -10 0 -10 -2 0 -6 6 -2 12 -14 11 -26 0 -21 -1 -21 -9 -2 -7 15 -9 7
-9 -30 1 -85 -11 -207 -25 -271 -7 -34 -11 -74 -9 -88 3 -15 1 -26 -5 -26 -7
0 -8 -14 -5 -37 4 -21 2 -34 -3 -30 -6 3 -9 -16 -8 -46 2 -39 0 -46 -6 -27 -5
15 -8 18 -9 8 -1 -9 -4 -24 -8 -34 -5 -13 -3 -16 10 -11 9 3 17 2 17 -3 0 -6
-7 -10 -15 -10 -8 0 -15 -5 -15 -11 0 -6 6 -9 13 -6 9 3 11 -8 9 -44 -2 -27
-8 -47 -12 -44 -5 3 -7 20 -6 38 2 17 1 24 -1 14 -2 -10 -13 -23 -24 -30 -13
-8 -19 -23 -19 -49 0 -33 3 -38 24 -38 22 0 23 -3 19 -52 -4 -52 -21 -215 -29
-273 -2 -16 -15 -131 -29 -255 -14 -124 -32 -274 -40 -335 -8 -60 -19 -155
-25 -210 -12 -122 -28 -252 -35 -283 -4 -17 -9 -21 -18 -14 -17 14 -67 24 -67
14 0 -5 9 -13 21 -18 20 -9 20 -11 5 -24 -10 -7 -16 -9 -14 -4 2 5 -1 10 -7
11 -5 1 -9 -8 -7 -20 6 -40 3 -90 -5 -96 -5 -3 -19 -22 -30 -41 -12 -19 -30
-44 -41 -55 -10 -11 -27 -33 -37 -48 -10 -15 -23 -27 -30 -25 -7 2 -36 30 -65
63 -198 227 -351 537 -416 845 -23 106 -27 158 -31 346 -5 225 3 326 43 507
51 238 201 565 333 730 207 259 458 463 706 572 33 15 75 33 92 41 93 42 308
95 462 114 36 5 161 7 276 6 169 -3 230 -8 315 -26z m-420 -600 l25 -8 -25 -1
c-14 0 -32 4 -40 9 -13 9 -13 10 0 9 8 -1 26 -5 40 -9z m147 -6 c-3 -3 -12 -4
-19 -1 -8 3 -5 6 6 6 11 1 17 -2 13 -5z m100 -30 c-3 -3 -12 -4 -19 -1 -8 3
-5 6 6 6 11 1 17 -2 13 -5z m-1090 -426 c-3 -7 -5 -2 -5 12 0 14 2 19 5 13 2
-7 2 -19 0 -25z m1128 -98 c66 -10 195 -60 223 -87 8 -7 17 -11 22 -8 5 3 12
0 16 -6 5 -8 3 -9 -6 -4 -9 6 -11 4 -6 -4 5 -7 14 -10 21 -7 14 5 59 -37 49
-46 -3 -4 4 -9 15 -13 27 -8 96 -146 111 -222 7 -33 10 -92 7 -138 -16 -245
-203 -417 -452 -416 -44 0 -89 2 -100 3 -18 3 -21 -5 -28 -91 -4 -52 -9 -96
-11 -98 -2 -2 -11 -1 -20 3 -31 12 -36 38 -22 118 7 42 9 79 5 82 -5 3 -11 -1
-13 -8 -13 -39 -14 -40 -15 -13 -1 38 -52 75 -76 55 -22 -18 -63 14 -67 53 -3
31 -4 30 -63 -52 -91 -127 -216 -295 -225 -301 -4 -3 -49 -68 -100 -145 -52
-77 -138 -206 -192 -287 -54 -82 -104 -148 -109 -148 -15 0 -158 113 -159 125
0 6 58 67 129 137 80 78 171 181 238 269 59 79 158 209 218 289 61 80 125 163
143 185 28 35 30 40 14 46 -39 15 -102 186 -102 279 0 110 60 250 140 324 58
54 153 104 234 121 76 17 94 17 181 5z m-833 -337 c-4 -55 -12 -54 -12 2 0 27
3 45 7 41 4 -4 6 -23 5 -43z m-6 -115 c2 -35 0 -47 -6 -38 -11 17 -14 107 -3
97 3 -4 8 -31 9 -59z m14 -115 c-10 -16 -11 -15 -6 7 3 14 6 32 7 40 1 8 4 5
6 -7 2 -12 -1 -30 -7 -40z m497 -559 c3 -9 -1 -67 -11 -128 -9 -61 -19 -131
-21 -156 -3 -25 -7 -52 -10 -60 -2 -8 -7 -44 -10 -80 -3 -36 -14 -121 -25
-190 -11 -69 -29 -199 -40 -290 -10 -91 -24 -188 -30 -217 -10 -46 -14 -51
-33 -47 -12 3 -58 12 -102 20 -93 17 -115 23 -253 76 -95 37 -102 41 -98 64 4
20 1 24 -21 24 -22 0 -24 -2 -12 -16 11 -13 7 -13 -24 2 -38 18 -48 40 -22 50
8 4 15 11 15 18 0 6 16 29 35 51 26 31 34 36 35 21 0 -10 -9 -34 -21 -53 -12
-18 -17 -33 -13 -32 21 4 35 -2 29 -12 -4 -6 2 -5 14 3 29 18 54 1 63 -43 4
-25 6 -16 5 32 0 68 8 92 33 102 12 4 11 6 -3 6 -10 1 -15 6 -12 11 9 14 -8
12 -24 -2 -11 -11 -12 -10 -6 1 11 19 -14 31 -42 20 -20 -8 -19 -3 14 44 20
29 67 95 103 147 50 71 329 463 455 636 13 19 24 18 32 -2z m190 -27 c7 -8
-18 -171 -27 -177 -14 -9 -58 -1 -66 12 -5 8 11 135 22 167 3 9 14 12 36 7 17
-3 33 -8 35 -9z m167 -59 c-7 -87 -31 -277 -54 -438 -11 -74 -26 -189 -35
-255 -33 -247 -57 -400 -66 -415 -6 -11 -8 -9 -9 10 0 63 53 565 89 844 23
169 41 310 41 312 0 2 9 4 20 4 18 0 19 -5 14 -62z m-196 -147 c17 -11 12 -41
-9 -54 -35 -22 -94 20 -74 53 8 12 65 13 83 1z m-3 -158 c-8 -91 -27 -267 -52
-477 l-17 -148 -60 7 c-34 3 -63 8 -65 11 -4 4 13 119 65 419 18 110 36 215
39 233 6 31 8 32 51 32 l46 0 -7 -77z m278 -44 c-6 -6 -7 3 -4 23 4 28 6 29 9
9 2 -13 0 -27 -5 -32z m-1271 -180 c35 -29 69 -58 77 -65 16 -14 15 -16 -151
-249 -127 -180 -222 -269 -352 -331 -86 -41 -96 -42 -96 -6 1 65 101 242 242
427 40 53 92 121 116 153 69 92 93 122 97 122 2 0 32 -23 67 -51z m-231 -45
c-11 -15 -21 -21 -21 -14 0 14 32 50 39 44 2 -2 -6 -15 -18 -30z m1476 -86
c-3 -7 -5 -2 -5 12 0 14 2 19 5 13 2 -7 2 -19 0 -25z m-1020 -172 c0 -8 -9
-14 -19 -13 -19 1 -23 9 -11 20 11 12 30 7 30 -7z m660 -122 c25 -5 29 -10 26
-32 -11 -102 -67 -487 -84 -582 -29 -164 -88 -285 -122 -251 -25 25 -12 247
32 551 23 157 44 293 47 303 6 18 44 22 101 11z m323 2 c0 -3 -4 -8 -10 -11
-5 -3 -10 -1 -10 4 0 6 5 11 10 11 6 0 10 -2 10 -4z m-1097 -56 c141 -75 432
-170 522 -170 l28 0 -6 -76 c-3 -42 -8 -79 -11 -82 -12 -11 -204 30 -321 69
-99 34 -301 123 -353 157 -13 9 -4 29 53 110 20 28 21 28 88 -8z m1107 22 c0
-5 -7 -9 -15 -9 -8 0 -15 4 -15 9 0 4 7 8 15 8 8 0 15 -4 15 -8z"/>
<path d="M2405 4260 c-141 -8 -213 -19 -221 -31 -3 -5 -14 -9 -24 -9 -24 0
-70 -21 -70 -31 0 -4 16 -5 35 -2 28 4 35 2 35 -11 0 -9 7 -16 15 -16 8 0 15
5 15 11 0 5 -5 7 -12 3 -6 -4 -8 -3 -5 3 4 6 26 6 64 -1 42 -8 50 -12 31 -14
-16 -2 -28 -8 -28 -13 0 -15 70 -10 87 7 13 12 28 14 70 9 32 -4 53 -3 53 3 0
12 40 23 54 15 5 -4 1 -10 -10 -14 -13 -5 -7 -8 23 -8 23 -1 43 4 45 11 3 8
11 9 24 3 18 -8 18 -9 -3 -12 -19 -4 -23 -11 -23 -44 l0 -39 80 0 80 0 0 40
c0 40 0 40 39 40 22 0 41 5 43 11 2 6 26 13 53 15 48 3 49 3 25 -11 l-25 -14
24 -1 c13 0 32 9 42 21 19 22 24 22 51 8 10 -5 34 -10 53 -11 28 -1 39 -7 50
-28 15 -29 40 -40 93 -40 21 0 31 -4 27 -11 -4 -6 -14 -8 -22 -5 -8 3 -11 1
-8 -4 3 -6 34 -10 67 -10 41 0 64 -5 72 -14 13 -18 48 -25 52 -11 3 9 -74 49
-209 109 -59 26 -116 44 -175 53 -18 3 -35 9 -38 14 -3 5 -16 9 -30 9 -14 0
-35 5 -47 12 -27 14 -287 19 -452 8z m70 -48 c-6 -5 -23 -14 -40 -20 l-30 -13
25 21 c23 18 66 30 45 12z"/>
<path d="M2065 4190 c-3 -5 -1 -10 4 -10 6 0 11 5 11 10 0 6 -2 10 -4 10 -3 0
-8 -4 -11 -10z"/>
<path d="M2006 4173 c-4 -5 -28 -15 -54 -24 -26 -9 -45 -20 -42 -25 3 -5 9 -8
14 -6 4 1 23 3 41 4 19 1 34 4 33 7 -2 23 6 31 30 31 21 0 24 2 12 10 -18 12
-24 12 -34 3z"/>
<path d="M2070 4160 c-8 -5 -10 -10 -5 -10 6 0 17 5 25 10 8 5 11 10 5 10 -5
0 -17 -5 -25 -10z"/>
<path d="M2200 4151 c0 -12 6 -21 16 -21 9 0 14 7 12 17 -5 25 -28 28 -28 4z"/>
<path d="M1967 4113 c-4 -3 -7 -11 -7 -17 0 -6 5 -5 12 2 6 6 9 14 7 17 -3 3
-9 2 -12 -2z"/>
<path d="M1830 4095 c-7 -8 -20 -15 -30 -15 -10 0 -23 -7 -30 -15 -10 -13 -9
-15 12 -15 15 0 33 10 44 25 14 19 25 24 42 20 12 -3 22 -1 22 5 0 16 -46 12
-60 -5z"/>
<path d="M3364 4048 c-3 -5 -4 -10 -3 -11 36 -19 44 -28 44 -50 0 -14 4 -29 8
-33 4 -5 5 -1 1 9 -4 13 -2 16 9 11 9 -3 17 1 19 10 2 13 10 10 38 -14 19 -16
39 -30 43 -30 5 0 6 -3 4 -7 -3 -5 8 -8 24 -9 l29 -1 -22 18 c-11 11 -27 19
-34 19 -8 0 -19 9 -26 21 -15 25 -126 80 -134 67z"/>
<path d="M1690 4020 c-8 -5 -10 -10 -5 -10 6 0 17 5 25 10 8 5 11 10 5 10 -5
0 -17 -5 -25 -10z"/>
<path d="M2080 3970 c0 -13 11 -13 30 0 12 8 11 10 -7 10 -13 0 -23 -4 -23
-10z"/>
<path d="M1573 3946 c-62 -61 -91 -86 -100 -86 -13 0 -104 -92 -98 -98 3 -3
22 11 44 31 21 19 49 38 62 42 22 7 51 33 83 75 6 9 22 20 35 26 19 8 21 12
10 21 -11 8 -19 5 -36 -11z"/>
<path d="M1701 3894 c0 -11 3 -14 6 -6 3 7 2 16 -1 19 -3 4 -6 -2 -5 -13z"/>
<path d="M3590 3895 c0 -8 5 -15 10 -15 6 0 8 -11 6 -25 -3 -13 -2 -24 2 -23
13 2 60 -21 68 -33 5 -8 2 -11 -8 -7 -8 4 -15 1 -15 -7 0 -7 6 -11 14 -8 7 3
13 0 13 -6 0 -6 5 -11 10 -11 6 0 9 3 9 8 -4 21 2 24 14 8 8 -11 19 -17 25
-15 13 5 -68 92 -116 127 -25 18 -32 19 -32 7z"/>
<path d="M1565 3870 c3 -5 8 -10 11 -10 2 0 4 5 4 10 0 6 -5 10 -11 10 -5 0
-7 -4 -4 -10z"/>
<path d="M1525 3830 c3 -5 13 -10 21 -10 8 0 14 5 14 10 0 6 -9 10 -21 10 -11
0 -17 -4 -14 -10z"/>
<path d="M2716 3828 c6 -9 114 -7 119 3 3 4 -24 6 -59 5 -35 0 -62 -4 -60 -8z"/>
<path d="M2865 3810 c3 -5 11 -10 16 -10 6 0 7 5 4 10 -3 6 -11 10 -16 10 -6
0 -7 -4 -4 -10z"/>
<path d="M1520 3800 c0 -5 5 -10 10 -10 6 0 10 5 10 10 0 6 -4 10 -10 10 -5 0
-10 -4 -10 -10z"/>
<path d="M1560 3800 c0 -5 5 -10 10 -10 6 0 10 5 10 10 0 6 -4 10 -10 10 -5 0
-10 -4 -10 -10z"/>
<path d="M2818 3803 c6 -2 18 -2 25 0 6 3 1 5 -13 5 -14 0 -19 -2 -12 -5z"/>
<path d="M1515 3763 c-18 -14 -18 -15 -2 -9 10 3 25 6 33 6 8 0 14 5 14 10 0
15 -22 12 -45 -7z"/>
<path d="M1314 3706 c-35 -39 -94 -119 -102 -138 -2 -5 5 -8 16 -8 14 0 22 9
27 28 3 15 15 34 25 42 11 8 20 20 20 27 0 19 43 55 50 42 4 -5 7 4 8 20 0 17
-1 31 -2 31 -2 0 -21 -20 -42 -44z"/>
<path d="M1583 3723 c-7 -3 -13 -13 -13 -24 0 -14 -7 -19 -25 -19 -17 0 -25
-6 -25 -17 0 -14 -5 -12 -24 10 l-23 27 -7 -42 c-4 -24 -7 -65 -6 -92 1 -38
-2 -47 -13 -43 -11 4 -13 0 -10 -14 5 -16 0 -19 -33 -19 -31 -1 -36 -3 -21
-11 28 -16 21 -39 -13 -39 -16 0 -30 -4 -30 -10 0 -5 5 -10 10 -10 6 0 10 -13
10 -30 0 -23 -4 -30 -20 -30 -17 0 -20 7 -20 43 -1 41 -1 42 -15 17 -8 -14
-14 -32 -15 -41 0 -14 -29 -29 -62 -33 -3 -1 -10 -4 -14 -8 -4 -4 -13 0 -20
10 -10 13 -15 14 -25 5 -16 -16 -3 -47 16 -39 9 3 15 0 15 -8 0 -8 -7 -16 -15
-20 -8 -3 -15 -11 -14 -18 0 -10 2 -10 6 0 2 6 11 12 18 12 8 0 17 9 20 20 5
16 10 18 26 9 11 -5 17 -14 14 -20 -4 -5 -9 -7 -13 -5 -4 2 -5 -16 -3 -40 2
-35 7 -44 21 -44 14 0 20 9 23 38 2 20 2 2 -1 -40 -4 -74 -3 -78 17 -78 18 0
21 6 21 40 l0 40 40 0 40 0 0 -40 c0 -33 3 -40 20 -40 17 0 20 -7 20 -40 l0
-40 40 0 40 0 0 80 0 80 -28 0 c-15 0 -33 -5 -40 -12 -9 -9 -12 8 -12 80 l0
92 85 0 c61 0 85 3 85 13 0 8 4 7 11 -3 7 -11 9 -3 5 30 -4 32 -3 39 3 25 12
-24 14 78 4 140 l-6 40 -13 -30 c-11 -28 -12 -26 -13 35 0 39 -5 67 -13 72
-10 6 -10 10 1 17 16 10 11 30 -6 24z m-23 -163 c0 -33 -3 -40 -20 -40 -17 0
-20 7 -20 40 0 33 3 40 20 40 17 0 20 -7 20 -40z m70 -95 c0 -8 -4 -15 -10
-15 -5 0 -10 7 -10 15 0 8 5 15 10 15 6 0 10 -7 10 -15z"/>
<path d="M3791 3708 c6 -12 20 -31 30 -42 26 -27 24 -2 -2 35 -24 34 -45 39
-28 7z"/>
<path d="M1417 3704 c-9 -10 2 -24 18 -24 9 0 12 6 9 15 -6 16 -17 19 -27 9z"/>
<path d="M3248 3663 c6 -2 18 -2 25 0 6 3 1 5 -13 5 -14 0 -19 -2 -12 -5z"/>
<path d="M3120 3629 c14 -7 53 -25 88 -40 146 -66 285 -208 367 -374 30 -60
61 -137 69 -170 74 -297 -32 -611 -261 -771 -37 -26 -72 -53 -78 -59 -5 -6
-19 -17 -30 -23 -11 -6 -14 -12 -7 -12 7 0 10 -5 6 -12 -4 -7 -3 -8 5 -4 6 4
9 12 6 17 -9 13 2 11 35 -6 16 -9 33 -27 36 -40 3 -14 10 -25 15 -25 5 0 9 -7
9 -15 0 -12 14 -15 70 -15 l70 0 0 30 c0 23 4 30 20 30 11 0 20 -4 20 -10 0
-5 10 -10 21 -10 20 0 21 4 17 71 -2 39 -2 66 0 60 6 -18 82 -14 82 4 0 9 7
18 15 21 17 7 19 32 5 54 -9 13 -11 13 -20 0 -8 -13 -10 -12 -10 4 0 10 10 29
23 42 12 13 31 33 41 46 18 20 20 20 26 4 5 -15 8 -15 17 -4 6 7 14 23 17 36
4 12 12 22 18 22 7 0 8 22 4 68 -4 37 -2 90 3 117 6 31 6 54 0 60 -5 5 -9 -1
-9 -16 0 -16 -6 -26 -15 -26 -11 0 -15 11 -14 36 1 32 2 33 9 11 11 -38 11
149 -1 259 -5 52 -13 97 -18 100 -15 10 -53 110 -48 125 7 18 -18 40 -34 30
-9 -5 -10 -2 -6 9 3 10 2 17 -4 17 -6 0 -7 4 -4 10 3 5 1 18 -4 27 -6 10 -11
14 -11 8 0 -5 -12 4 -26 20 -14 17 -22 23 -19 15 4 -8 -2 -4 -13 10 -15 18
-18 29 -11 42 12 22 4 39 -14 32 -7 -2 -23 5 -35 16 -12 11 -27 19 -34 18 -7
-2 -13 5 -13 14 0 9 -4 20 -8 24 -4 4 -7 2 -7 -5 0 -15 -37 3 -60 29 -8 9 -21
15 -27 13 -7 -3 -13 0 -13 5 0 11 -38 28 -53 24 -4 -1 -20 4 -35 12 -15 7 -58
21 -96 30 -37 10 -76 20 -85 22 -9 3 -5 -1 9 -7z m440 -209 c0 -5 -2 -10 -4
-10 -3 0 -8 5 -11 10 -3 6 -1 10 4 10 6 0 11 -4 11 -10z m22 -12 c-7 -7 -12
-8 -12 -2 0 6 3 14 7 17 3 4 9 5 12 2 2 -3 -1 -11 -7 -17z m15 -1060 c-3 -7
-5 -2 -5 12 0 14 2 19 5 13 2 -7 2 -19 0 -25z m-90 -70 c14 -24 10 -33 -15
-35 -15 0 -20 2 -13 7 9 5 8 9 -5 14 -16 6 -16 8 -4 16 20 13 27 12 37 -2z
m53 -24 c0 -8 -7 -14 -15 -14 -15 0 -21 21 -9 33 10 9 24 -2 24 -19z m-105 6
c3 -6 -1 -7 -9 -4 -18 7 -21 14 -7 14 6 0 13 -4 16 -10z m-30 -10 c3 -5 2 -10
-4 -10 -5 0 -13 5 -16 10 -3 6 -2 10 4 10 5 0 13 -4 16 -10z m-58 -75 c0 -8
-4 -12 -9 -9 -4 3 -8 9 -8 15 0 5 4 9 8 9 5 0 9 -7 9 -15z"/>
<path d="M3485 2270 c3 -5 11 -10 16 -10 6 0 7 5 4 10 -3 6 -11 10 -16 10 -6
0 -7 -4 -4 -10z"/>
<path d="M3228 3623 c7 -3 16 -2 19 1 4 3 -2 6 -13 5 -11 0 -14 -3 -6 -6z"/>
<path d="M3867 3606 c-3 -8 -2 -18 4 -22 16 -9 22 2 11 21 -8 15 -10 16 -15 1z"/>
<path d="M3310 3586 c7 -7 13 -7 20 0 6 6 3 10 -10 10 -13 0 -16 -4 -10 -10z"/>
<path d="M3906 3572 c-3 -6 -1 -12 4 -14 6 -2 12 -13 12 -25 1 -12 7 -19 15
-16 12 5 9 11 -23 61 -1 2 -5 -1 -8 -6z"/>
<path d="M1186 3534 c-4 -9 -4 -19 -1 -22 2 -3 7 3 11 12 4 9 4 19 1 22 -2 3
-7 -3 -11 -12z"/>
<path d="M1330 3470 c0 -5 7 -10 15 -10 8 0 15 5 15 10 0 6 -7 10 -15 10 -8 0
-15 -4 -15 -10z"/>
<path d="M3970 3462 c0 -12 19 -26 26 -19 2 2 -2 10 -11 17 -9 8 -15 8 -15 2z"/>
<path d="M4015 3383 c14 -27 25 -54 25 -61 0 -8 9 -25 20 -39 11 -14 20 -39
20 -55 0 -16 4 -27 8 -24 5 3 15 -10 22 -29 17 -44 34 -46 25 -2 -6 26 -45 97
-65 117 -3 3 -6 12 -8 20 -5 27 -54 120 -63 120 -5 0 2 -21 16 -47z"/>
<path d="M4010 3315 c0 -8 2 -15 4 -15 2 0 6 7 10 15 3 8 1 15 -4 15 -6 0 -10
-7 -10 -15z"/>
<path d="M1601 3284 c0 -11 3 -14 6 -6 3 7 2 16 -1 19 -3 4 -6 -2 -5 -13z"/>
<path d="M3715 3270 c-3 -5 -1 -10 4 -10 6 0 11 5 11 10 0 6 -2 10 -4 10 -3 0
-8 -4 -11 -10z"/>
<path d="M1023 3224 c-6 -13 -7 -24 -3 -24 9 0 25 39 18 45 -2 2 -8 -7 -15
-21z"/>
<path d="M3740 3235 c6 -8 8 -20 4 -27 -5 -10 -4 -10 5 -2 13 12 5 44 -11 44
-6 0 -5 -6 2 -15z"/>
<path d="M1601 3224 c0 -11 3 -14 6 -6 3 7 2 16 -1 19 -3 4 -6 -2 -5 -13z"/>
<path d="M1161 3104 c0 -11 3 -14 6 -6 3 7 2 16 -1 19 -3 4 -6 -2 -5 -13z"/>
<path d="M1110 3061 c0 -6 4 -13 10 -16 6 -3 7 1 4 9 -7 18 -14 21 -14 7z"/>
<path d="M3805 3039 c-4 -6 -5 -12 -2 -15 2 -3 7 2 10 11 7 17 1 20 -8 4z"/>
<path d="M3824 3025 c-3 -8 -4 -20 -2 -27 3 -7 7 -1 10 15 6 29 1 36 -8 12z"/>
<path d="M4180 2981 c0 -15 -4 -20 -12 -15 -7 4 -5 -2 5 -13 9 -11 17 -25 17
-32 0 -7 4 -10 9 -7 5 3 5 22 1 42 -10 43 -20 56 -20 25z"/>
<path d="M927 2934 c-4 -4 -7 -19 -6 -33 l0 -26 10 24 c10 26 8 47 -4 35z"/>
<path d="M3812 2860 c0 -14 2 -19 5 -12 2 6 2 18 0 25 -3 6 -5 1 -5 -13z"/>
<path d="M917 2834 c3 -9 0 -20 -8 -25 -10 -6 -4 -9 21 -11 79 -4 110 -3 110
5 0 4 -25 7 -55 7 -48 0 -55 2 -55 20 0 11 -4 20 -10 20 -5 0 -7 -7 -3 -16z"/>
<path d="M4210 2800 c0 -19 3 -21 12 -12 9 9 9 15 0 24 -9 9 -12 7 -12 -12z"/>
<path d="M1133 2793 c9 -2 23 -2 30 0 6 3 -1 5 -18 5 -16 0 -22 -2 -12 -5z"/>
<path d="M4232 2730 c0 -14 2 -19 5 -12 2 6 2 18 0 25 -3 6 -5 1 -5 -13z"/>
<path d="M1088 2733 c6 -2 18 -2 25 0 6 3 1 5 -13 5 -14 0 -19 -2 -12 -5z"/>
<path d="M1433 2723 c9 -2 25 -2 35 0 9 3 1 5 -18 5 -19 0 -27 -2 -17 -5z"/>
<path d="M4227 2495 c-3 -110 -8 -227 -11 -260 -4 -49 -3 -53 4 -20 4 22 6 44
3 49 -3 4 1 12 8 17 17 10 25 261 11 354 -7 51 -10 30 -15 -140z"/>
<path d="M3845 2638 c-4 -25 -5 -54 -2 -64 3 -11 5 0 6 23 0 23 6 43 13 45 8
3 8 9 1 23 -10 16 -12 13 -18 -27z"/>
<path d="M3740 2365 c0 -8 5 -15 10 -15 6 0 10 7 10 15 0 8 -4 15 -10 15 -5 0
-10 -7 -10 -15z"/>
<path d="M3202 2173 c-6 -2 -10 -9 -6 -14 3 -5 -4 -9 -15 -9 -23 0 -28 -15 -8
-23 10 -4 41 -3 70 2 4 0 7 12 7 26 0 25 -16 31 -48 18z"/>
<path d="M3095 2140 c-11 -4 -31 -6 -44 -3 -18 4 -22 3 -16 -7 4 -7 2 -16 -6
-22 -11 -8 -11 -9 1 -4 8 2 32 10 53 17 20 7 37 16 37 21 0 4 -1 8 -2 7 -2 0
-12 -4 -23 -9z"/>
<path d="M3560 2095 c0 -8 9 -15 20 -15 11 0 20 7 20 15 0 8 -9 15 -20 15 -11
0 -20 -7 -20 -15z"/>
<path d="M4187 2091 c-4 -17 -3 -21 5 -13 5 5 8 16 6 23 -3 8 -7 3 -11 -10z"/>
<path d="M1483 2065 c0 -22 2 -30 4 -17 2 12 2 30 0 40 -3 9 -5 -1 -4 -23z"/>
<path d="M3230 2069 c0 -6 5 -7 10 -4 6 3 10 1 10 -4 0 -6 -7 -11 -15 -11 -8
0 -15 -7 -15 -15 0 -12 3 -13 19 -3 27 17 33 44 10 45 -11 1 -19 -3 -19 -8z"/>
<path d="M952 2040 c0 -14 2 -19 5 -12 2 6 2 18 0 25 -3 6 -5 1 -5 -13z"/>
<path d="M1460 2016 c0 -9 5 -16 10 -16 6 0 10 4 10 9 0 6 -4 13 -10 16 -5 3
-10 -1 -10 -9z"/>
<path d="M1440 1999 c0 -11 4 -18 10 -14 5 3 7 12 3 20 -7 21 -13 19 -13 -6z"/>
<path d="M2941 1934 c0 -11 3 -14 6 -6 3 7 2 16 -1 19 -3 4 -6 -2 -5 -13z"/>
<path d="M1007 1900 c3 -11 7 -20 9 -20 2 0 4 9 4 20 0 11 -4 20 -9 20 -5 0
-7 -9 -4 -20z"/>
<path d="M4119 1894 c-14 -35 -31 -75 -38 -88 -2 -5 1 -6 7 -2 7 4 12 14 12
22 0 8 4 14 8 14 10 0 34 71 27 78 -2 3 -9 -8 -16 -24z"/>
<path d="M1031 1844 c0 -11 3 -14 6 -6 3 7 2 16 -1 19 -3 4 -6 -2 -5 -13z"/>
<path d="M1120 1720 c0 -22 5 -40 10 -40 6 0 10 18 10 40 0 22 -4 40 -10 40
-5 0 -10 -18 -10 -40z"/>
<path d="M4020 1679 c0 -5 5 -7 10 -4 6 3 10 8 10 11 0 2 -4 4 -10 4 -5 0 -10
-5 -10 -11z"/>
<path d="M1441 1664 c0 -11 3 -14 6 -6 3 7 2 16 -1 19 -3 4 -6 -2 -5 -13z"/>
<path d="M1152 1638 c-16 -16 -15 -35 3 -42 12 -4 15 1 13 24 -1 17 -3 30 -3
30 -1 0 -6 -5 -13 -12z"/>
<path d="M1183 1584 c-3 -8 -1 -24 4 -36 8 -17 9 -15 9 16 0 39 -3 45 -13 20z"/>
<path d="M1370 1590 c-18 -12 -2 -12 25 0 13 6 15 9 5 9 -8 0 -22 -4 -30 -9z"/>
<path d="M2926 1575 c-3 -8 -1 -15 4 -15 6 0 10 7 10 15 0 8 -2 15 -4 15 -2 0
-6 -7 -10 -15z"/>
<path d="M1395 1570 c3 -5 11 -10 16 -10 6 0 7 5 4 10 -3 6 -11 10 -16 10 -6
0 -7 -4 -4 -10z"/>
<path d="M1250 1503 c0 -10 5 -25 10 -33 9 -13 10 -13 11 0 1 8 1 21 0 28 -3
21 17 13 21 -8 4 -29 22 -26 26 5 3 23 0 25 -32 25 -28 0 -36 -4 -36 -17z"/>
<path d="M3122 1460 c0 -14 2 -19 5 -12 2 6 2 18 0 25 -3 6 -5 1 -5 -13z"/>
<path d="M3855 1444 c-10 -16 -38 -48 -62 -71 -24 -23 -43 -47 -43 -52 0 -9
21 10 98 93 19 20 32 41 30 47 -2 7 -12 -1 -23 -17z"/>
<path d="M1323 1415 c-7 -8 -9 -16 -5 -19 4 -3 13 4 20 15 14 22 3 25 -15 4z"/>
<path d="M3710 1285 c-8 -9 -8 -15 -2 -15 12 0 26 19 19 26 -2 2 -10 -2 -17
-11z"/>
<path d="M2871 1254 c0 -11 3 -14 6 -6 3 7 2 16 -1 19 -3 4 -6 -2 -5 -13z"/>
<path d="M3664 1249 c-19 -22 -19 -22 4 -10 12 6 22 16 22 21 0 15 -5 12 -26
-11z"/>
<path d="M3588 1188 c9 -9 15 -9 24 0 9 9 7 12 -12 12 -19 0 -21 -3 -12 -12z"/>
<path d="M3553 1168 c-31 -15 -29 -30 2 -16 14 6 25 15 25 20 0 9 1 10 -27 -4z"/>
<path d="M2871 1134 c0 -11 3 -14 6 -6 3 7 2 16 -1 19 -3 4 -6 -2 -5 -13z"/>
<path d="M3465 1110 c3 -5 0 -10 -8 -10 -8 0 -20 -7 -27 -15 -21 -25 11 -18
45 10 29 23 29 24 7 25 -13 0 -20 -4 -17 -10z"/>
<path d="M3370 1045 c-16 -19 -1 -19 24 0 16 12 17 15 4 15 -8 0 -21 -7 -28
-15z"/>
<path d="M3320 1019 c0 -5 5 -7 10 -4 6 3 10 8 10 11 0 2 -4 4 -10 4 -5 0 -10
-5 -10 -11z"/>
<path d="M3276 1003 c-4 -5 -11 -8 -14 -9 -26 -3 -62 -18 -62 -25 0 -5 -8 -9
-19 -9 -24 0 -95 -29 -88 -36 10 -11 217 67 217 81 0 8 -26 6 -34 -2z"/>
<path d="M3035 920 c3 -6 -2 -10 -12 -11 -10 0 -13 -3 -6 -5 7 -3 20 -1 29 4
15 8 15 9 0 15 -10 4 -15 3 -11 -3z"/>
<path d="M2861 895 c0 -5 3 -16 8 -23 6 -10 11 -9 22 4 12 16 12 17 -3 11 -9
-3 -19 -1 -22 6 -2 7 -5 8 -5 2z"/>
<path d="M2659 2997 c-85 -24 -163 -99 -209 -199 -36 -80 -38 -131 -9 -193 44
-94 140 -149 259 -149 67 -1 82 3 140 35 148 81 200 240 124 379 -58 107 -186
160 -305 127z"/>
<path d="M2100 2111 c0 -9 34 -41 43 -41 17 0 4 26 -18 37 -14 6 -25 8 -25 4z"/>
<path d="M2403 1817 c-1 -38 0 -39 8 -13 4 16 5 35 1 43 -5 7 -8 -5 -9 -30z"/>
<path d="M2106 1535 c4 -8 13 -15 21 -15 13 0 13 3 3 15 -7 8 -16 15 -21 15
-5 0 -6 -7 -3 -15z"/>
<path d="M1994 1381 c4 -5 1 -12 -4 -14 -6 -3 -5 -4 2 -3 15 3 23 26 8 26 -6
0 -9 -4 -6 -9z"/>
<path d="M1954 1329 c-3 -6 -1 -16 4 -21 8 -8 11 -5 9 11 -1 24 -3 25 -13 10z"/>
<path d="M1757 1169 c7 -7 15 -10 18 -7 3 3 -2 9 -12 12 -14 6 -15 5 -6 -5z"/>
<path d="M1920 1110 c-9 -6 -10 -10 -3 -10 6 0 15 5 18 10 8 12 4 12 -15 0z"/>
<path d="M2065 1110 c3 -5 8 -10 11 -10 2 0 4 5 4 10 0 6 -5 10 -11 10 -5 0
-7 -4 -4 -10z"/>
<path d="M1978 1093 c7 -3 16 -2 19 1 4 3 -2 6 -13 5 -11 0 -14 -3 -6 -6z"/>
<path d="M2000 1076 c0 -10 28 -13 41 -5 10 6 7 9 -13 9 -16 0 -28 -2 -28 -4z"/>
<path d="M2088 1033 c7 -3 16 -2 19 1 4 3 -2 6 -13 5 -11 0 -14 -3 -6 -6z"/>
<path d="M2140 1032 c0 -5 14 -7 30 -4 17 2 30 6 30 8 0 2 -13 4 -30 4 -16 0
-30 -4 -30 -8z"/>
<path d="M2220 1019 c0 -5 5 -7 10 -4 6 3 10 8 10 11 0 2 -4 4 -10 4 -5 0 -10
-5 -10 -11z"/>
<path d="M2278 1013 c7 -3 16 -2 19 1 4 3 -2 6 -13 5 -11 0 -14 -3 -6 -6z"/>
</g>
</svg>
